<svg width="414.65498046875px" height="121.40498046875px" xmlns="http://www.w3.org/2000/svg" viewBox="42.672509765624994 14.297509765625001 414.65498046875 121.40498046875" style="background: rgba(0, 0, 0, 0);" preserveAspectRatio="xMidYMid"><defs><filter id="editing-hole" x="-100%" y="-100%" width="300%" height="300%"><feFlood flood-color="#000" result="black"></feFlood><feMorphology operator="dilate" radius="2" in="SourceGraphic" result="erode"></feMorphology><feGaussianBlur in="erode" stdDeviation="4" result="blur"></feGaussianBlur><feOffset in="blur" dx="2" dy="2" result="offset"></feOffset><feComposite operator="atop" in="offset" in2="black" result="merge"></feComposite><feComposite operator="in" in="merge" in2="SourceGraphic" result="inner-shadow"></feComposite></filter></defs><g filter="url(#editing-hole)"><g transform="translate(105.13500910997391, 102.52000045776367)"><path d="M7.68 0L0.64 0L8.32-42.24L22.08-42.24L32.06-13.18L37.38-42.24L44.48-42.18L36.67 0L22.02 0L12.80-27.97L7.68 0ZM60.03 1.28L60.03 1.28L60.03 1.28Q45.95 1.28 45.95-11.97L45.95-11.97L45.95-11.97Q45.95-21.38 51.14-27.46L51.14-27.46L51.14-27.46Q56.64-33.92 66.18-33.92L66.18-33.92L66.18-33.92Q73.09-33.92 76.61-30.72L76.61-30.72L76.61-30.72Q80.13-27.52 80.13-20.80L80.13-20.80L80.13-20.80Q80.13-10.56 74.62-4.61L74.62-4.61L74.62-4.61Q69.25 1.28 60.03 1.28ZM61.70-26.56L61.70-26.56L61.70-26.56Q60.93-24.83 60.32-22.24L60.32-22.24L60.32-22.24Q59.71-19.65 58.94-15.55L58.94-15.55L58.94-15.55Q58.18-11.46 58.18-6.40L58.18-6.40L58.18-6.40Q58.18-4.74 58.72-3.65L58.72-3.65L58.72-3.65Q59.26-2.56 60.74-2.56L60.74-2.56L60.74-2.56Q62.21-2.56 63.14-3.26L63.14-3.26L63.14-3.26Q64.06-3.97 64.77-5.63L64.77-5.63L64.77-5.63Q66.05-8.58 67.07-14.05L67.07-14.05L67.07-14.05Q68.10-19.52 68.19-21.89L68.19-21.89L68.19-21.89Q68.29-24.26 68.29-26.02L68.29-26.02L68.29-26.02Q68.29-27.78 67.78-28.93L67.78-28.93L67.78-28.93Q67.26-30.08 65.82-30.08L65.82-30.08L65.82-30.08Q64.38-30.08 63.42-29.18L63.42-29.18L63.42-29.18Q62.46-28.29 61.70-26.56ZM110.34 0L96.38 0L104.51-42.24L118.59-42.24L110.34 0ZM166.08 1.28L166.08 1.28L166.08 1.28Q158.34 1.28 158.34-4.74L158.34-4.74L158.34-4.74Q158.34-7.36 159.46-12.45L159.46-12.45L159.46-12.45Q160.58-17.54 160.96-19.58L160.96-19.58L160.96-19.58Q161.86-24.26 161.86-25.73L161.86-25.73L161.86-25.73Q161.86-28.99 159.42-28.99L159.42-28.99L159.42-28.99Q157.82-28.99 156.29-26.78L156.29-26.78L156.29-26.78Q154.75-24.58 154.05-20.16L154.05-20.16L150.08 0L137.60 1.28L141.06-16.13L141.06-16.13Q141.63-19.01 142.14-22.27L142.14-22.27L142.14-22.27Q142.66-25.54 142.66-26.05L142.66-26.05L142.66-26.05Q142.66-28.99 140.48-28.99L140.48-28.99L140.48-28.99Q139.01-28.99 137.41-26.82L137.41-26.82L137.41-26.82Q135.81-24.64 134.91-20.16L134.91-20.16L131.01 0L118.40 1.28L125.12-32.64L135.55-33.92L134.46-27.46L134.46-27.46Q136.13-30.91 139.20-32.42L139.20-32.42L139.20-32.42Q142.27-33.92 147.07-33.92L147.07-33.92L147.07-33.92Q149.82-33.92 151.62-32.58L151.62-32.58L151.62-32.58Q153.41-31.23 153.98-29.06L153.98-29.06L153.98-29.06Q155.07-31.30 157.86-32.61L157.86-32.61L157.86-32.61Q160.64-33.92 164.06-33.92L164.06-33.92L164.06-33.92Q167.49-33.92 169.18-33.18L169.18-33.18L169.18-33.18Q170.88-32.45 171.90-31.23L171.90-31.23L171.90-31.23Q173.63-28.99 173.63-24.90L173.63-24.90L173.63-24.90Q173.63-20.86 171.90-12.48L171.90-12.48L171.90-12.48Q171.01-8.38 171.01-6.88L171.01-6.88L171.01-6.88Q171.01-5.38 171.87-4.48L171.87-4.48L171.87-4.48Q172.74-3.58 174.02-3.46L174.02-3.46L174.02-3.46Q173.38-1.28 171.17 0L171.17 0L171.17 0Q168.96 1.28 166.08 1.28ZM181.73-1.92L181.73-1.92L181.73-1.92Q180.22-3.58 179.55-6.21L179.55-6.21L179.55-6.21Q178.88-8.83 178.88-13.12L178.88-13.12L178.88-13.12Q178.88-17.41 180.35-21.31L180.35-21.31L180.35-21.31Q181.82-25.22 184.51-28.03L184.51-28.03L184.51-28.03Q190.02-33.92 199.10-33.92L199.10-33.92L199.10-33.92Q202.37-33.92 204.74-32.83L204.74-32.83L215.68-33.92L210.94-8.96L210.94-8.96Q210.75-8.19 210.75-6.78L210.75-6.78L210.75-6.78Q210.75-5.38 211.62-4.48L211.62-4.48L211.62-4.48Q212.48-3.58 213.76-3.46L213.76-3.46L213.76-3.46Q213.12-1.28 210.78 0L210.78 0L210.78 0Q208.45 1.28 205.82 1.28L205.82 1.28L205.82 1.28Q203.20 1.28 201.44 0.29L201.44 0.29L201.44 0.29Q199.68-0.70 199.17-2.37L199.17-2.37L199.17-2.37Q198.14-0.77 195.97 0.26L195.97 0.26L195.97 0.26Q193.79 1.28 190.88 1.28L190.88 1.28L190.88 1.28Q187.97 1.28 185.60 0.51L185.60 0.51L185.60 0.51Q183.23-0.26 181.73-1.92ZM195.23-27.90L195.23-27.90L195.23-27.90Q194.50-26.75 193.86-24.80L193.86-24.80L193.86-24.80Q193.22-22.85 192.16-17.63L192.16-17.63L192.16-17.63Q191.10-12.42 191.10-8.70L191.10-8.70L191.10-8.70Q191.10-4.99 191.68-3.90L191.68-3.90L191.68-3.90Q192.26-2.82 193.28-2.82L193.28-2.82L193.28-2.82Q195.33-2.82 196.83-4.77L196.83-4.77L196.83-4.77Q198.34-6.72 198.91-10.18L198.91-10.18L202.30-28.93L202.30-28.93Q200.96-30.08 199.39-30.08L199.39-30.08L199.39-30.08Q197.82-30.08 196.90-29.57L196.90-29.57L196.90-29.57Q195.97-29.06 195.23-27.90ZM223.42-26.75L223.42-26.75L223.42-26.75Q225.60-29.82 228.90-31.87L228.90-31.87L228.90-31.87Q232.19-33.92 236.22-33.92L236.22-33.92L236.22-33.92Q240.26-33.92 242.18-32.64L242.18-32.64L254.72-33.92L250.37-9.34L250.37-9.34Q248.13 3.20 243.39 8.13L243.39 8.13L243.39 8.13Q238.85 12.80 230.02 12.80L230.02 12.80L230.02 12.80Q223.30 12.80 219.46 10.69L219.46 10.69L219.46 10.69Q215.62 8.58 215.62 5.06L215.62 5.06L215.62 5.06Q215.62 2.43 217.60 0.93L217.60 0.93L217.60 0.93Q219.58-0.58 222.66-0.58L222.66-0.58L222.66-0.58Q225.34-0.58 227.39 0.64L227.39 0.64L227.39 0.64Q228.61 1.28 229.18 2.18L229.18 2.18L229.18 2.18Q227.71 3.46 227.71 5.57L227.71 5.57L227.71 5.57Q227.71 8.32 230.27 8.32L230.27 8.32L230.27 8.32Q234.56 8.32 236.99-1.79L236.99-1.79L236.99-1.79Q237.70-4.54 238.27-7.30L238.27-7.30L238.27-7.30Q235.39-3.78 228.86-3.78L228.86-3.78L228.86-3.78Q224.32-3.78 221.70-5.95L221.70-5.95L221.70-5.95Q219.07-8.13 219.07-13.25L219.07-13.25L219.07-13.25Q219.07-16.45 220.16-20.06L220.16-20.06L220.16-20.06Q221.25-23.68 223.42-26.75ZM231.74-13.06L231.74-13.06L231.74-13.06Q231.74-8.70 233.98-8.70L233.98-8.70L233.98-8.70Q235.52-8.70 236.99-10.37L236.99-10.37L236.99-10.37Q238.14-11.71 238.59-13.70L238.59-13.70L241.86-30.14L241.86-30.14Q241.54-30.21 241.22-30.34L241.22-30.34L241.22-30.34Q240.58-30.59 239.74-30.59L239.74-30.59L239.74-30.59Q235.84-30.59 233.54-24.19L233.54-24.19L233.54-24.19Q231.74-19.20 231.74-13.06ZM283.14-10.82L283.14-10.82L283.14-10.82Q284.74-9.73 284.74-7.33L284.74-7.33L284.74-7.33Q284.74-4.93 283.52-3.39L283.52-3.39L283.52-3.39Q282.30-1.86 280.32-0.83L280.32-0.83L280.32-0.83Q276.22 1.28 271.81 1.28L271.81 1.28L271.81 1.28Q267.39 1.28 264.80 0.32L264.80 0.32L264.80 0.32Q262.21-0.64 260.48-2.43L260.48-2.43L260.48-2.43Q257.09-5.82 257.09-12.03L257.09-12.03L257.09-12.03Q257.09-21.70 262.34-27.58L262.34-27.58L262.34-27.58Q267.97-33.92 277.76-33.92L277.76-33.92L277.76-33.92Q283.84-33.92 286.85-31.36L286.85-31.36L286.85-31.36Q289.09-29.44 289.09-26.30L289.09-26.30L289.09-26.30Q289.09-15.04 269.63-15.04L269.63-15.04L269.63-15.04Q269.38-13.38 269.38-11.97L269.38-11.97L269.38-11.97Q269.38-9.02 270.69-7.90L270.69-7.90L270.69-7.90Q272-6.78 274.43-6.78L274.43-6.78L274.43-6.78Q276.86-6.78 279.46-7.90L279.46-7.90L279.46-7.90Q282.05-9.02 283.14-10.82ZM270.08-17.79L270.08-17.79L270.08-17.79Q274.62-17.79 277.25-20.61L277.25-20.61L277.25-20.61Q279.87-23.30 279.87-27.58L279.87-27.58L279.87-27.58Q279.87-29.06 279.33-29.86L279.33-29.86L279.33-29.86Q278.78-30.66 277.70-30.66L277.70-30.66L277.70-30.66Q276.61-30.66 275.68-30.24L275.68-30.24L275.68-30.24Q274.75-29.82 273.79-28.42L273.79-28.42L273.79-28.42Q271.42-25.22 270.08-17.79Z" fill="#ccc"></path></g></g><style>text {
  font-size: 64px;
  font-family: Arial Black;
  dominant-baseline: central;
  text-anchor: middle;
}</style></svg>